PathFileType	4	(X/Y/Z)	pose_F01_0-96.trc
DataRate	CameraRate	NumFrames	NumMarkers	Units	OrigDataRate	OrigDataStartFrame	OrigNumFrames
30	30	6	21	m	30	24	96
Frame#	Time	CHip			RHip			RKnee			RAnkle			RBigToe			RSmallToe			RHeel			LHip			LKnee			LAnkle			LBigToe			LSmallToe			LHeel			Neck			Nose			RShoulder			RElbow			RWrist			LShoulder			LElbow			LWrist			
		X1	Y1	Z1	X2	Y2	Z2	X3	Y3	Z3	X4	Y4	Z4	X5	Y5	Z5	X6	Y6	Z6	X7	Y7	Z7	X8	Y8	Z8	X9	Y9	Z9	X10	Y10	Z10	X11	Y11	Z11	X12	Y12	Z12	X13	Y13	Z13	X14	Y14	Z14	X15	Y15	Z15	X16	Y16	Z16	X17	Y17	Z17	X18	Y18	Z18	X19	Y19	Z19	X20	Y20	Z20	X21	Y21	Z21	
24	0.8	-0.21218499716393616	1.8341200072629669	-0.5302221837080645	-0.22267840519057241	1.8322997685028204	-0.46546415567974503	-0.2101126427255426	1.707080682448572	-0.45318093869715964	-0.2090516170623467	1.5789713806148271	-0.4298876455406417	-0.23979902798812866	1.5450260450545354	-0.3973815263780579	-0.22607504932335257	1.5533633753598195	-0.40832200718259243	-0.20621261729962825	1.573877473136358	-0.44162534975177997	-0.19838876913470008	1.8358463440558468	-0.5969317023176803	-0.1949791099974785	1.7059491436981096	-0.576042424974196	-0.19711706996674375	1.5715101766723474	-0.5623331695837787	-0.22700623716559315	1.5349475887777415	-0.5361969251299078	-0.22033061647496396	1.5383035255872615	-0.5649232896294866	-0.1884320640596807	1.5637921340484138	-0.5572905605232342	-0.19921531194144895	1.9908723534437718	-0.5643504030486798	-0.22006964375862942	2.0599079172531214	-0.5516834085888418	-0.2145277881388403	1.9892590696508552	-0.47077623864125356	-0.22438495584199245	1.9050377780435135	-0.4206838107489217	-0.23527301474863063	1.83117956863744	-0.3962738058778959	-0.17810899441160816	1.994058529019571	-0.6652655302435323	-0.17955270559203415	1.9047913974953454	-0.6786177171619411	-0.19144411688291174	1.8269297274205678	-0.6617147975850766
25	0.8333333333333334	-0.21228295520552104	1.834107189793467	-0.5301689812879471	-0.22263589553529445	1.8309485295738224	-0.465287956053834	-0.21230976276697222	1.7058167567822278	-0.45059641608694206	-0.21133542090306784	1.5781786774511561	-0.42718113892230486	-0.23940457223223124	1.5458389412566593	-0.39796049975477654	-0.22607504932335257	1.5533633753598195	-0.40832200718259243	-0.20850930140864074	1.5732090037246502	-0.4389141361212928	-0.20141316830039313	1.8358723231540766	-0.5977494459641489	-0.1954155139321422	1.7034438430161027	-0.5752986983540853	-0.19717816337091587	1.5716239103809075	-0.562425302691322	-0.22725975754745092	1.5362909970621847	-0.5359205709475836	-0.22040441465172989	1.538290716557452	-0.5649018199272211	-0.18961982269699026	1.5624460401912046	-0.5599922321908937	-0.19814170932600841	1.9910169661810155	-0.5694017073735278	-0.22007191590838207	2.0599372462016015	-0.5516303180271896	-0.21451641350673628	1.9892328535063044	-0.4708397249667326	-0.22526329997345565	1.9037332603502863	-0.4234449362535309	-0.23520669987791634	1.831118182177912	-0.3963213189965766	-0.17809658486962468	1.9940207110090475	-0.6652060370814431	-0.17743528479556106	1.906264771448598	-0.6812037976502523	-0.1893002860168406	1.8295879813411475	-0.6642010287835963
26	0.8666666666666667	-0.21209750654588583	1.8353201405054593	-0.5303852054120862	-0.22256366525822033	1.8335337480944889	-0.4656682504739626	-0.21226902794746175	1.7058520323638018	-0.4507141865445379	-0.2107374601070202	1.5774444794519078	-0.427931783110405	-0.23901011647633383	1.546651837458783	-0.3985394731314952	-0.22607504932335257	1.5533633753598195	-0.40832200718259243	-0.2082466554950936	1.571695802813562	-0.43912983937229494	-0.2012205284410846	1.837109594773192	-0.5979735252063436	-0.19506376535940206	1.7060094372821832	-0.5759970530757949	-0.19735565714982908	1.5729103136767166	-0.5621500270103532	-0.22951533111377342	1.5345239592062272	-0.5332383113411082	-0.22066704776602025	1.5369178797585965	-0.5643122386579053	-0.18868510898438115	1.5625690495036366	-0.5567731900569269	-0.19921270001303523	1.9908374427359572	-0.5643073507388608	-0.22201893733459316	2.059920872253239	-0.5495309200074624	-0.21449816549815448	1.9891844479071894	-0.47076245223882895	-0.22438592218091022	1.9050222560606402	-0.4206932764366178	-0.2333792335493337	1.831302851559239	-0.3984939301996494	-0.1801333768404714	1.9939436087191442	-0.6630425104530152	-0.18189913345899034	1.9049058952666793	-0.6765507398528121	-0.19154728354302147	1.8268662464153793	-0.6615260001904004
27	0.9	-0.2124306812156256	1.8369298029367065	-0.5305297701364357	-0.22288646822784505	1.8349976557703591	-0.465867128367766	-0.2120698572869299	1.7072220609094224	-0.45101009375844864	-0.2109809083855749	1.5763644203542995	-0.42735911907242	-0.2386156607204364	1.5474647336609066	-0.3991184465082139	-0.22607504932335257	1.5533633753598195	-0.40832200718259243	-0.20536771696671874	1.5719525887358743	-0.43797360097077764	-0.2006625862265155	1.8385402050658435	-0.595005753438044	-0.19523012676992121	1.7047033204529125	-0.5755737411272736	-0.19759324157983338	1.5716429153977165	-0.5615709503439689	-0.22725580201185053	1.5360920679867753	-0.5359202909739034	-0.22272957337364646	1.5369167805697856	-0.5622209384593688	-0.1867626420746891	1.5638537039615044	-0.5586945693420291	-0.20008618923767407	1.9909633270453275	-0.5672963741300517	-0.22205411400482966	2.0598635175433104	-0.549528953495622	-0.21454756982763895	1.9892209785089978	-0.4708070140407925	-0.22250998808850217	1.9051208524776393	-0.4227139545947931	-0.2335654851325942	1.8299286372195243	-0.39840758825139483	-0.17810014286220519	1.9941048508295287	-0.6652645765388551	-0.1794775544784545	1.9073380277161167	-0.6789418917716888	-0.19142792912798318	1.8269075376559043	-0.6616336282446786
28	0.9333333333333333	-0.21192213731814913	1.833924607291146	-0.5301937359440438	-0.22239194395309012	1.8321973681944443	-0.46542856555682766	-0.2121117591133742	1.704341153154811	-0.45064084063849674	-0.21112318586234446	1.5768709372651362	-0.42730918411737956	-0.23822120496453897	1.5482776298630303	-0.39969741988493257	-0.22607504932335257	1.5533633753598195	-0.40832200718259243	-0.20714399495375943	1.5709723392298727	-0.43604907954117583	-0.20018876190311832	1.8357100308908605	-0.5947503951854015	-0.19751538528127185	1.7032620738728566	-0.5729169830866665	-0.19668009700160693	1.5716372195619412	-0.5583324361507992	-0.2282465709198905	1.535829697896001	-0.5305218540207349	-0.22291722733093014	1.5381402550428913	-0.5618400617868047	-0.18705576818363026	1.5624708661296562	-0.5580411232528611	-0.19814956877857764	1.9910790213761749	-0.5695221129162007	-0.22208231580085447	2.059889849439275	-0.5494617127401413	-0.2144680011051845	1.989234591296888	-0.4709450337763295	-0.2203985785395205	1.9074606167868484	-0.41658408149149806	-0.23954446850379532	1.8367820982196432	-0.40186330677298243	-0.18087954348692362	1.995381124174326	-0.6661584801838225	-0.18038570227526826	1.9048634469717252	-0.6817585536689151	-0.19126631250644946	1.8281670998624218	-0.6617622796934912
29	0.9666666666666667	-0.2122946881943653	1.8336840134998607	-0.5334526756301604	-0.22006177546458763	1.8335081092142678	-0.467933634162349	-0.2137325449948303	1.7039744684341285	-0.4487524124892845	-0.21122963574222897	1.5773543704023503	-0.4271930337181409	-0.23782674920864155	1.5490905260651542	-0.4002763932616512	-0.22607504932335257	1.5533633753598195	-0.40832200718259243	-0.20737560138536199	1.572419774162533	-0.4357058909920604	-0.201667575445369	1.8342799868170456	-0.6009396004292952	-0.19930511594038913	1.7028630772606126	-0.5709886609165837	-0.19825712470107082	1.5714294231934358	-0.5569792735527338	-0.22725899549058626	1.5361889369891484	-0.5359459212093278	-0.22059782991631635	1.5396341131645732	-0.5646355288667344	-0.18871973695140187	1.5625252940416021	-0.5566810698456633	-0.1989427418696655	1.993653095304509	-0.5732429459782549	-0.22407952708886414	2.061164550680301	-0.5477525225040347	-0.2114868892302584	1.992002910548605	-0.47904119431803543	-0.21430636522900207	1.9245763617857297	-0.41139782875323416	-0.2412970175723411	1.880166683400226	-0.4103208492905389	-0.18272012694780854	1.9955940833572574	-0.6722632823042045	-0.17526528849962394	1.9115749612953115	-0.6959208834424604	-0.19127836850661342	1.8325591811129944	-0.6708652229074623
